<?xml version="1.0" encoding="UTF-8" standalone="no"?>
<svg width="24px" height="24px" viewBox="0 0 24 24" version="1.1" xmlns="http://www.w3.org/2000/svg" xmlns:xlink="http://www.w3.org/1999/xlink">
    <!-- Generator: Sketch 48.1 (47250) - http://www.bohemiancoding.com/sketch -->
    <title>Artboard</title>
    <desc>Created with Sketch.</desc>
    <defs></defs>
    <g id="Page-1" stroke="none" stroke-width="1" fill="none" fill-rule="evenodd" opacity="0.6">
        <g id="Artboard" fill="#000000" fill-rule="nonzero">
            <g id="noun_980106_cc" transform="translate(3.000000, 2.000000)">
                <g id="Group" transform="translate(0.000000, 0.159705)">
                    <path d="M5.8216934,0.432022535 L4.4758405,4.68867355 L0.493067418,7.70119311 C0.373461893,7.79302866 0.301601093,7.93386682 0.297436745,8.08460469 L9.71517997e-05,18.6166635 C-0.00504636653,18.8013144 0.0918689463,18.9738054 0.252252982,19.0654534 C0.412637018,19.1571015 0.610447813,19.1530254 0.766920313,19.0548482 L9.73405646,13.5384288 C9.86439633,13.4581531 9.95086712,13.3226776 9.96879825,13.1706541 L10.5869391,8.20981033 L13.6073084,4.92341534 C13.7103643,4.81052284 13.7562233,4.65674786 13.7318356,4.50584897 C13.7074479,4.35495008 13.6154838,4.22344954 13.4821128,4.14876745 L6.54938041,0.142507668 C6.46139787,0.0929310158 6.36048295,0.0711106296 6.25987806,0.0799098592 C6.05550934,0.0965177932 5.88190608,0.236020413 5.8216934,0.432022535 Z M6.58851656,1.32404131 L12.4414117,4.704323 L10.0157466,7.34908044 L5.50870435,4.74344664 L6.58851656,1.32404131 Z M9.57756194,8.25675869 L9.00636945,12.8107167 L1.92497978,17.1612645 L4.22544926,13.1784914 C4.95992188,13.3531393 5.75531468,13.0332394 6.15033189,12.3490704 C6.6313585,11.5158936 6.34188119,10.4357559 5.50870435,9.95470423 C5.30040388,9.83444131 5.07735537,9.76310485 4.85142736,9.73561189 C4.17361828,9.65313302 3.47512689,9.97143036 3.11433815,10.5963318 C2.71959637,11.28 2.8471707,12.1289014 3.36472939,12.6777089 L1.0564477,16.6761315 L1.29116444,8.3506554 L4.95313628,5.58069233 L9.57756194,8.25675869 Z M5.00792188,10.8232613 C5.37231624,11.0336401 5.49215349,11.4838685 5.28179981,11.8482879 C5.07137102,12.2126823 4.62114254,12.3325446 4.25674817,12.1221408 C3.8923538,11.9117621 3.77251656,11.4615086 3.98287023,11.0971142 C4.08810967,10.9149045 4.25204081,10.7944914 4.43672939,10.7450141 C4.48287649,10.7327449 4.5295995,10.7247324 4.57754942,10.7214773 C4.7214743,10.7120125 4.87125834,10.744313 5.00792188,10.8232613 Z M4.50713941,18.1315305 C4.23055725,18.1315305 4.00635693,18.3557308 4.00635693,18.632313 C4.00635693,18.9088951 4.23055725,19.1330955 4.50713941,19.1330955 L17.0267012,19.1330955 C17.3032834,19.1330955 17.5274837,18.9088951 17.5274837,18.632313 C17.5274837,18.3557308 17.3032834,18.1315305 17.0267012,18.1315305 L4.50713941,18.1315305 Z" id="Shape"></path>
                </g>
            </g>
        </g>
    </g>
</svg>