<?xml version="1.0" encoding="UTF-8" standalone="no"?>
<svg width="16px" height="16px" viewBox="0 0 16 16" version="1.1" xmlns="http://www.w3.org/2000/svg" xmlns:xlink="http://www.w3.org/1999/xlink">
    <!-- Generator: Sketch 50.2 (55047) - http://www.bohemiancoding.com/sketch -->
    <title>Artboard</title>
    <desc>Created with Sketch.</desc>
    <defs></defs>
    <g id="Page-1" stroke="none" stroke-width="1" fill="none" fill-rule="evenodd">
        <g id="Artboard">
            <g id="Group-6" transform="translate(2.000000, 0.000000)">
                <polyline id="Path-5" stroke="#FFFFFF" stroke-width="1.75" stroke-linecap="round" stroke-linejoin="round" transform="translate(6.000000, 7.000000) rotate(90.000000) translate(-6.000000, -7.000000) " points="9 1 3 6.9525181 9 13"></polyline>
                <path d="M1,0 L11,0 C11.5522847,-1.01453063e-16 12,0.44771525 12,1 L12,1 C12,1.55228475 11.5522847,2 11,2 L1,2 C0.44771525,2 6.76353751e-17,1.55228475 0,1 L0,1 C-6.76353751e-17,0.44771525 0.44771525,1.01453063e-16 1,0 Z" id="Rectangle-6" fill="#FFFFFF"></path>
                <path d="M1,9 L11,9 C11.5522847,9 12,9.44771525 12,10 L12,10 C12,10.5522847 11.5522847,11 11,11 L1,11 C0.44771525,11 6.76353751e-17,10.5522847 0,10 L0,10 C-6.76353751e-17,9.44771525 0.44771525,9 1,9 Z" id="Rectangle-6-Copy" fill="#FFFFFF" transform="translate(6.000000, 10.000000) rotate(-270.000000) translate(-6.000000, -10.000000) "></path>
            </g>
        </g>
    </g>
</svg>