<?xml version="1.0" encoding="UTF-8" standalone="no"?>
<svg width="1280px" height="58px" viewBox="0 0 1280 58" version="1.1" xmlns="http://www.w3.org/2000/svg" xmlns:xlink="http://www.w3.org/1999/xlink">
    <!-- Generator: Sketch 48.2 (47327) - http://www.bohemiancoding.com/sketch -->
    <title>Artboard Copy</title>
    <desc>Created with Sketch.</desc>
    <defs></defs>
    <g id="Page-1" stroke="none" stroke-width="1" fill="none" fill-rule="evenodd">
        <g id="Artboard-Copy" fill-rule="nonzero">
            <g id="svc-wave" transform="translate(-1.000000, 0.000000)">
                <polygon id="Rectangle-9" fill="#00A862" points="1 0 1281 0 1281 26.645128 1096.59537 45 929.754336 44.2513211 621.58237 23.6943096 352.990606 42.6413473 131.972543 16.7706006 1 28.3255822"></polygon>
                <path d="M1281,25.4186197 C1173.00431,38.2591027 1107.70228,40.8809069 1035.35838,40.8809069 C872.088924,40.8809069 777.55379,20.4702267 656.537572,20.4702267 C535.521354,20.4702267 523.310111,31.1850839 405.556223,31.1850839 C287.802333,31.1850839 244.922694,13 153.544482,13 C115.962642,13 82.2135538,16.5488475 52.2972168,19.6465425 C33.72025,21.5700994 16.85854,23.3281471 0,25.2089025 L1,30.430529 C23.5263414,28.4013983 35.725075,27.3040396 52.3605077,26.0198232 C136.980237,19.4873785 209.057563,25.3930082 268.592485,45.7367123 C375.450867,82.2513362 462.283238,17.0638811 731.66763,31.1850839 C775.183618,33.4662036 870.055891,56.5545161 999.999277,56.5545161 C1059.90119,56.5545161 1091.98419,51.4147591 1127.76439,47.6070479 C1148.82014,45.3663052 1177.51179,42.0994418 1218.26993,37.62277 C1236.60396,35.6090505 1257.37957,32.5528778 1281,30.6195705 L1281,25.4186197 Z" id="Combined-Shape" fill="#009859"></path>
            </g>
        </g>
    </g>
</svg>