<?xml version="1.0" encoding="UTF-8"?>
<svg width="30px" height="30px" viewBox="0 0 30 30" version="1.1" xmlns="http://www.w3.org/2000/svg" xmlns:xlink="http://www.w3.org/1999/xlink">
    <!-- Generator: Sketch 49.3 (51167) - http://www.bohemiancoding.com/sketch -->
    <title>wechat</title>
    <desc>Created with Sketch.</desc>
    <defs>
        <radialGradient cx="39.5742178%" cy="28.2312983%" fx="39.5742178%" fy="28.2312983%" r="124.187826%" gradientTransform="translate(0.395742,0.282313),scale(0.902321,1.000000),rotate(51.604221),translate(-0.395742,-0.282313)" id="radialGradient-1">
            <stop stop-color="#FFFFFF" offset="0%"></stop>
            <stop stop-color="#F7F7F7" offset="100%"></stop>
        </radialGradient>
        <path d="M29.0526316,13.5789474 C28.3157895,11.8947368 26.8947368,10.5263158 25.2631579,9.73684211 C22.3684211,8.26315789 18.7894737,8.26315789 15.8947368,9.78947368 C13.8947368,10.8421053 12.2105263,12.6842105 11.7368421,14.8947368 C11.3684211,16.5263158 11.6842105,18.3157895 12.5789474,19.7368421 C13.8947368,21.8947368 16.2105263,23.2631579 18.6842105,23.7368421 C20.4736842,24.1052632 22.3157895,23.8947368 24,23.3684211 C25.0526316,23.7894737 25.9473684,24.4210526 26.9473684,24.8947368 C26.6842105,24.0526316 26.4210526,23.1578947 26.1052632,22.3157895 C27.2105263,21.5263158 28.2631579,20.5263158 28.8421053,19.2631579 C29.7894737,17.5263158 29.8421053,15.3684211 29.0526316,13.5789474 Z" id="path-2"></path>
        <filter x="-9.7%" y="-10.8%" width="119.4%" height="121.5%" filterUnits="objectBoundingBox" id="filter-3">
            <feMorphology radius="0.25" operator="dilate" in="SourceAlpha" result="shadowSpreadOuter1"></feMorphology>
            <feOffset dx="0" dy="0" in="shadowSpreadOuter1" result="shadowOffsetOuter1"></feOffset>
            <feGaussianBlur stdDeviation="0.5" in="shadowOffsetOuter1" result="shadowBlurOuter1"></feGaussianBlur>
            <feComposite in="shadowBlurOuter1" in2="SourceAlpha" operator="out" result="shadowBlurOuter1"></feComposite>
            <feColorMatrix values="0 0 0 0 0   0 0 0 0 0   0 0 0 0 0  0 0 0 0.0658118207 0" type="matrix" in="shadowBlurOuter1"></feColorMatrix>
        </filter>
    </defs>
    <g id="wechat" stroke="none" stroke-width="1" fill="none" fill-rule="evenodd">
        <g id="if_social_we_chat_710254" transform="translate(0.000000, 3.000000)">
            <path d="M16.8421053,1.94736842 C13.7894737,0.210526316 9.94736842,-0.0526315789 6.68421053,1.15789474 C4.52631579,1.94736842 2.57894737,3.36842105 1.36842105,5.36842105 C0.263157895,7.15789474 -0.157894737,9.36842105 0.368421053,11.4210526 C0.894736842,13.6842105 2.47368421,15.5789474 4.36842105,16.8421053 C4,17.8947368 3.63157895,18.9473684 3.31578947,20 C4.52631579,19.3684211 5.73684211,18.7368421 6.89473684,18.1052632 C8.36842105,18.5789474 9.84210526,18.7894737 11.3684211,18.7368421 C10.9473684,17.5789474 10.8947368,16.3157895 11.0526316,15.1052632 C11.3157895,13.4210526 12.2631579,11.8947368 13.5263158,10.7368421 C15.6315789,8.73684211 18.6315789,7.89473684 21.5263158,8.10526316 C21,5.42105263 19.1578947,3.21052632 16.8421053,1.94736842 Z" id="Shape" fill="#7DD43E" fill-rule="nonzero"></path>
            <path d="M8.63157895,6.68421053 C8.42105263,7.68421053 7.05263158,8.21052632 6.26315789,7.52631579 C5.31578947,6.89473684 5.57894737,5.26315789 6.68421053,4.89473684 C7.73684211,4.47368421 8.94736842,5.57894737 8.63157895,6.68421053 Z" id="Path" fill="#127321"></path>
            <path d="M16.0526316,6.36842105 C16.0526316,7.52631579 14.4736842,8.26315789 13.5789474,7.47368421 C12.6842105,6.84210526 12.9473684,5.21052632 14,4.89473684 C15,4.52631579 16.1578947,5.36842105 16.0526316,6.36842105 Z" id="Path" fill="#127321"></path>
            <g id="Shape" fill-rule="nonzero">
                <use fill="black" fill-opacity="1" filter="url(#filter-3)" xlink:href="#path-2"></use>
                <use stroke="#FFFFFF" stroke-width="0.5" fill="url(#radialGradient-1)" fill-rule="evenodd" xlink:href="#path-2"></use>
            </g>
            <path d="M18.9473684,14.2105263 C18.6842105,15 17.5263158,15.2631579 16.9473684,14.6315789 C16.3157895,14.0526316 16.5789474,12.8947368 17.3684211,12.6315789 C18.3157895,12.2631579 19.3684211,13.3157895 18.9473684,14.2105263 Z" id="Path" fill="#7A7E7E"></path>
            <path d="M24.8421053,14.3157895 C24.5263158,15.0526316 23.4736842,15.2105263 22.9473684,14.6315789 C22.6842105,14.4210526 22.6315789,14.0526316 22.5263158,13.7368421 C22.6842105,13.1578947 23.0526316,12.5789474 23.6842105,12.5789474 C24.5263158,12.4736842 25.3157895,13.5263158 24.8421053,14.3157895 Z" id="Path" fill="#7A7E7E"></path>
        </g>
    </g>
</svg>