<?xml version="1.0" encoding="UTF-8"?>
<svg width="30px" height="30px" viewBox="0 0 30 30" version="1.1" xmlns="http://www.w3.org/2000/svg" xmlns:xlink="http://www.w3.org/1999/xlink">
    <!-- Generator: Sketch 49.3 (51167) - http://www.bohemiancoding.com/sketch -->
    <title>weibo</title>
    <desc>Created with Sketch.</desc>
    <defs></defs>
    <g id="weibo" stroke="none" stroke-width="1" fill="none" fill-rule="evenodd">
        <g id="if_Weibo_104800" transform="translate(1.000000, 2.000000)" fill-rule="nonzero">
            <path d="M24.1899028,6.38980292 L24.1899028,6.38834454 C24.1899028,6.38834454 24.1839233,6.38041852 24.1734288,6.36653214 C24.1691577,6.3606986 24.1652528,6.35461142 24.1609207,6.34877787 L24.1602496,6.34922173 C24.0537178,6.20947023 23.6784769,5.72851963 23.4044595,5.51749741 C22.3332841,4.50544039 20.4860006,4.64176785 20.149077,4.72071096 C19.8122144,4.79965407 19.2648508,5.13958501 19.4079915,5.95837407 C19.5511322,6.77716314 20.2580494,6.68813813 20.9115787,6.63455827 C21.4821279,6.58776308 22.0477959,6.99439936 22.1822725,7.09832527 C22.1840419,7.09997388 22.3672083,7.26775177 22.4863701,7.45632752 L22.4850888,7.45721523 C22.4850888,7.45721523 22.5010137,7.48150054 22.5263958,7.52512533 C22.5264569,7.52531555 22.5265789,7.52556919 22.5267619,7.52575941 C22.5267619,7.52575941 22.5268229,7.52575941 22.5268229,7.52582282 C22.6394562,7.71972485 22.935988,8.29432924 22.853252,8.84274608 C22.7516624,9.51569647 22.6119996,10.2414024 23.3865212,10.452488 C24.1609818,10.6636371 24.529267,10.122639 24.6308566,9.77953766 C24.7312259,9.44030421 25.0418521,7.5795929 24.1899028,6.38980292 Z" id="Shape" fill="#E99316"></path>
            <path d="M26.4428105,3.16713927 C26.4428105,3.16713927 26.0091068,2.47983635 25.7500185,2.21924665 C25.7234698,2.18668101 25.6619531,2.13201727 25.6619531,2.13201727 C22.5005247,-0.966758073 19.2789829,0.211549344 19.0090056,0.25774861 C18.714388,0.308083194 18.280516,0.612093744 18.3090292,1.59823806 C18.3377669,2.584447 19.3564962,2.6352985 19.3564962,2.6352985 C21.6368219,1.86354461 23.3622069,3.03984899 24.243085,3.88610322 C24.243085,3.88610322 26.8147168,6.57651583 25.6080138,10.3848214 C25.6080138,10.3848214 25.5871902,11.558412 26.4402286,11.6542351 C27.293267,11.7500582 27.5846292,11.2710073 27.6469877,10.9356588 C27.7042386,10.6282883 28.9324388,6.9989645 26.4428105,3.16713927 Z" id="Shape" fill="#E99316"></path>
            <path d="M22.2749548,12.7313417 C22.2749548,12.7313417 20.9312799,12.2002365 20.8399661,12.0312337 C20.7486524,11.8622309 20.8077309,11.4820234 20.9581812,11.1440178 C21.1086315,10.8060122 21.210671,9.80410885 21.1784938,9.41790975 C21.1462006,9.03164554 21.1193573,8.15055152 19.9212047,7.49264541 C18.7230521,6.83473931 16.1494533,7.54696077 15.8217673,7.70385008 C15.4940233,7.86080451 14.1723217,8.34443258 14.1723217,8.34443258 C14.1723217,8.34443258 13.6975481,8.63398421 13.8615651,7.7652642 C14.025582,6.89654419 14.7754564,3.44791004 11.9632823,3.50059724 C9.15105011,3.55328443 5.68257635,6.5806164 4.46395788,7.92326066 C3.24528143,9.26583979 -0.832472581,13.8464997 0.151802873,18.8746425 C0.151802873,18.8746425 0.597124177,20.3489071 1.34705662,21.2176922 C2.09693108,22.0863471 3.1281679,23.4026803 5.49513672,24.3767096 C7.86210555,25.3507389 10.0649995,25.6666667 12.5257751,25.6666667 C14.9865507,25.6666667 18.5487153,24.7978164 21.079817,22.7445788 C23.6108027,20.6912761 24.6654043,18.558845 24.7591531,17.0845804 C24.8528439,15.6103159 24.3138318,13.6696166 22.2749548,12.7313417 Z M11.9678624,23.7591167 C7.28540837,24.4927647 3.1427781,22.2950118 2.71502383,18.850155 C2.28726955,15.4052982 5.73643698,12.018013 10.4188331,11.2844302 C15.1011712,10.550717 19.2439174,12.748535 19.6717297,16.1933267 C20.099368,19.6381835 16.6502006,23.0254687 11.9678624,23.7591167 Z" id="Shape" fill="#D52A2C"></path>
            <path d="M15.0083468,17.113007 C14.5878819,14.9230129 12.3490717,13.5820292 10.0078556,14.1179492 C7.66669502,14.6538085 6.10959059,16.8635908 6.53011108,19.0535243 C6.95063158,21.2435791 9.18944175,22.5845628 11.5306579,22.0487642 C13.871874,21.5128442 15.4288673,19.3031226 15.0083468,17.113007 Z M9.35150114,19.2491603 C8.53203102,19.2491603 7.8677265,18.5238564 7.8677265,17.6291995 C7.8677265,16.734482 8.53203102,16.0091781 9.35150114,16.0091781 C10.1709713,16.0091781 10.8352758,16.734482 10.8352758,17.6291995 C10.8352758,18.5238564 10.1709713,19.2491603 9.35150114,19.2491603 Z M12.8445898,19.384157 C12.4519224,19.384157 12.1335855,19.036589 12.1335855,18.6079258 C12.1335855,18.1792019 12.4519224,17.8316339 12.8445898,17.8316339 C13.2372572,17.8316339 13.5555386,18.1792019 13.5555386,18.6079258 C13.5555386,19.0366497 13.2372017,19.384157 12.8445898,19.384157 Z" id="Shape" fill="#000000"></path>
        </g>
    </g>
</svg>