<?xml version="1.0" encoding="UTF-8"?>
<svg width="24px" height="24px" viewBox="0 0 24 24" version="1.1" xmlns="http://www.w3.org/2000/svg" xmlns:xlink="http://www.w3.org/1999/xlink">
    <!-- Generator: Sketch 50.2 (55047) - http://www.bohemiancoding.com/sketch -->
    <title>delivery</title>
    <desc>Created with Sketch.</desc>
    <defs></defs>
    <g id="Page-1" stroke="none" stroke-width="1" fill="none" fill-rule="evenodd">
        <g id="Group" transform="translate(-2.000000, 0.000000)" stroke="#666666" stroke-width="0.9">
            <g id="Group-2" transform="translate(3.000000, 4.000000)">
                <path d="M1.05936074,4.11925751 L9.07789286,4.11925751 L9.07789286,7.02262915 C7.99229247,7.07249698 7.17997707,7.09743089 6.64094666,7.09743089 C6.10191624,7.09743089 5.2428052,7.07249698 4.06361354,7.02262915 C3.2480902,7.02262915 2.56856644,6.77541965 2.02504226,6.28100065 C1.48151809,5.78658164 1.15962425,5.06600059 1.05936074,4.11925751 Z" id="Path"></path>
                <path d="M0.310240366,11.2032704 C0.630855247,10.2938014 1.19699813,9.49106232 2.00866902,8.79505316 C3.22617535,7.75103942 4.40938687,7.75103942 5.3686564,7.75103942 C6.32792593,7.75103942 7.38211522,7.96721642 8.1599287,8.34987769 C8.67847102,8.60498521 9.37808091,9.12382871 10.2587584,9.90640818 L13.7850825,9.90640818 C14.4325852,9.44143056 14.9741401,9.07097889 15.4097471,8.79505316 C16.0631577,8.38116456 16.5380478,8.10450738 17.5855318,8.10450738 C18.6330158,8.10450738 19.5058286,8.6374249 20.1145857,9.29169458 C20.5204239,9.72787436 20.905793,10.5320621 21.2706932,11.7042579 L0.310240366,11.7042579 L0.310240366,11.2032704 Z" id="Path-2"></path>
                <path d="M2.52738014,12.7994085 C2.84866228,13.8975313 3.18209129,14.6079388 3.52766718,14.9306309 C4.046031,15.414669 4.63825115,15.8056711 5.74683251,15.8056711 C6.85541386,15.8056711 7.44326122,15.4133509 7.96346589,14.9306309 C8.310269,14.6088176 8.65129385,13.8984101 8.98654043,12.7994085" id="Path-3"></path>
                <path d="M13.9321041,12.9172283 C14.3025525,14.0036398 14.6764926,14.7147788 15.0539245,15.0506451 C15.6200722,15.5544445 16.0000279,15.9832448 17.2076812,15.9832448 C18.4153345,15.9832448 18.9589081,15.3694844 19.5008637,14.8328978 C19.8621675,14.4751735 20.1896324,13.8366169 20.4832583,12.9172283" id="Path-4"></path>
                <path d="M11.6869012,0.266478285 C13.1881362,0.154403376 14.0519558,0.11679356 14.2783601,0.153648836 C14.6179665,0.20893175 14.9821727,0.327655439 15.2223893,0.701022241 C15.3825336,0.949933443 15.4626058,1.29271627 15.4626058,1.72937071 L15.4626058,8.4821867" id="Path-5"></path>
                <polyline id="Path-6" points="15.5795017 1.9585892 17.7368457 1.9585892 17.7368457 4.92334186 15.5795017 4.92334186"></polyline>
            </g>
        </g>
    </g>
</svg>