<?xml version="1.0" encoding="UTF-8" standalone="no"?>
<svg width="24px" height="24px" viewBox="0 0 24 24" version="1.1" xmlns="http://www.w3.org/2000/svg" xmlns:xlink="http://www.w3.org/1999/xlink">
    <!-- Generator: Sketch 43.2 (39069) - http://www.bohemiancoding.com/sketch -->
    <title>Icons/Magic</title>
    <desc>Created with Sketch.</desc>
    <defs></defs>
    <g id="2.2-Iconography" stroke="none" stroke-width="1" fill="none" fill-rule="evenodd" opacity="0.600000024">
        <g id="icon/Magic-Dark">
            <g id="Icons/Magic">
                <rect id="Bounds" fill="#D8D8D8" opacity="0" x="0" y="0" width="24" height="24"></rect>
                <g id="Layer_1" transform="translate(5.000000, 4.000000)" stroke-linecap="round" stroke="#000000" stroke-linejoin="round">
                    <g id="Group">
                        <path d="M8.71428571,3.92307692 C6.65,3.92307692 4.95,2.2 4.95,0.107692308 C4.95,2.2 3.37142857,3.92307692 1.30714286,3.92307692 C3.37142857,3.92307692 5.07142857,5.64615385 5.07142857,7.73846154 C4.95,5.52307692 6.65,3.92307692 8.71428571,3.92307692 L8.71428571,3.92307692 Z" id="Shape"></path>
                        <path d="M14.9071429,10.2 C12.8428571,10.2 11.1428571,8.47692308 11.1428571,6.38461538 C11.1428571,8.47692308 9.44285714,10.2 7.37857143,10.2 C9.44285714,10.2 11.1428571,11.9230769 11.1428571,14.0153846 C11.2642857,11.9230769 12.8428571,10.2 14.9071429,10.2 L14.9071429,10.2 Z" id="Shape"></path>
                        <path d="M5.31428571,12.4153846 C3.85714286,12.4153846 2.64285714,11.3076923 2.64285714,9.83076923 C2.64285714,11.3076923 1.42857143,12.4153846 0.0928571429,12.4153846 C1.55,12.4153846 2.64285714,13.6461538 2.64285714,15 C2.64285714,13.6461538 3.85714286,12.4153846 5.31428571,12.4153846 L5.31428571,12.4153846 Z" id="Shape"></path>
                    </g>
                </g>
            </g>
        </g>
    </g>
</svg>