<?xml version="1.0" encoding="UTF-8"?>
<svg width="22px" height="26px" viewBox="0 0 22 26" version="1.1" xmlns="http://www.w3.org/2000/svg" xmlns:xlink="http://www.w3.org/1999/xlink">
    <!-- Generator: Sketch 46.1 (44463) - http://www.bohemiancoding.com/sketch -->
    <title>Group 12</title>
    <desc>Created with Sketch.</desc>
    <defs></defs>
    <g id="2.2-Iconography" stroke="none" stroke-width="1" fill="none" fill-rule="evenodd" opacity="0.600000024">
        <g id="icon/Open-Now-Dark" transform="translate(-1.000000, 1.000000)" stroke="#000000">
            <g id="Group-12" transform="translate(2.000000, 0.000000)">
                <path d="M15.7085059,23.7532425 L4.59332262,23.7532425 C2.17520044,23.7532425 0.214835003,21.7928771 0.214835003,19.3747549 L0.214835003,11.474013 C0.214835003,9.05589081 2.17520044,7.09584238 4.59332262,7.09584238 L15.7085059,7.09584238 C18.1266281,7.09584238 20.0869935,9.05589081 20.0869935,11.474013 L20.0869935,19.3747549 C20.0869935,21.7928771 18.1266281,23.7532425 15.7085059,23.7532425 L15.7085059,23.7532425 Z" id="Stroke-75" stroke-linecap="round" stroke-linejoin="round"></path>
                <path d="M11.6316812,2.84941948 L16.7858827,7.09571558" id="Stroke-77" stroke-linecap="round" stroke-linejoin="round"></path>
                <path d="M3.51578734,7.09568387 L10.1510411,1.62954849" id="Stroke-79" stroke-linecap="round" stroke-linejoin="round"></path>
                <path d="M12.4981539,15.6682884 C12.4981539,16.9264854 11.4780284,17.9466109 10.2198314,17.9466109 C8.96163434,17.9466109 7.94182587,16.9264854 7.94182587,15.6682884 C7.94182587,14.4100914 8.96163434,13.3899659 10.2198314,13.3899659 C11.4780284,13.3899659 12.4981539,14.4100914 12.4981539,15.6682884 L12.4981539,15.6682884 Z" id="Stroke-81" stroke-linecap="round" stroke-linejoin="round"></path>
                <path d="M14.0939624,11.377548 L6.20780275,11.377548 L6.89063379,21.1387985 C6.9121902,21.4963813 7.20827386,21.7753466 7.5664907,21.7753466 L12.7352744,21.7753466 C13.0934912,21.7753466 13.3895749,21.4963813 13.4111313,21.1387985 L14.0939624,11.377548 L14.0939624,11.377548 Z" id="Stroke-83" stroke-linecap="round" stroke-linejoin="round"></path>
                <path d="M14.9038177,11.377548 L5.39807419,11.377548 L5.56545338,10.4414292 C5.61902741,10.2106488 5.82476434,9.78078855 6.06156786,9.78078855 L14.240007,9.78078855 C14.4771276,9.78078855 14.6828645,10.2106488 14.7361215,10.4414292 L14.9038177,11.377548 L14.9038177,11.377548 Z" id="Stroke-85" stroke-linecap="round" stroke-linejoin="round"></path>
                <path d="M10.2199582,3.97162091 L13.0451161,1.14646296" id="Stroke-87" stroke-linecap="round" stroke-linejoin="round"></path>
                <path d="M13.0452112,0.0574837644 C13.6465717,0.0574837644 14.134127,0.545039075 14.134127,1.14639956 C14.134127,1.74776004 13.6465717,2.23531535 13.0452112,2.23531535 C12.4438507,2.23531535 11.9562954,1.74776004 11.9562954,1.14639956 C11.9562954,0.545039075 12.4438507,0.0574837644 13.0452112,0.0574837644" id="Fill-89"></path>
            </g>
        </g>
    </g>
</svg>